<svg id="svg" fill="#ffffff" stroke="#ffffff" width="200" height="200" version="1.1" viewBox="144 144 512 512" xmlns="http://www.w3.org/2000/svg">
    <g id="IconSvg_bgCarrier" stroke-width="0"></g>
    <g id="IconSvg_tracerCarrier" stroke-linecap="round" stroke-linejoin="round" stroke="#CCCCCC" stroke-width="0">
      <path xmlns="http://www.w3.org/2000/svg" d="m596.11 460.74c-22.723 8.5664-46.238 12.906-69.91 12.906-109.43 0-198.45-89.023-198.45-198.45 0-23.668 4.3438-47.188 12.906-69.91 0.69922-1.8477 0.25-3.9414-1.1523-5.3398-1.3906-1.4023-3.4922-1.8477-5.3398-1.1523-80.789 30.465-135.07 108.82-135.07 194.96 0 114.98 93.543 208.53 208.53 208.53 86.152 0 164.5-54.277 194.96-135.07 0.69922-1.8477 0.25-3.9414-1.1523-5.3398-1.3945-1.3906-3.4844-1.8359-5.3281-1.1406zm-188.48 131.48c-109.43 0-198.46-89.027-198.46-198.46 0-78.297 47.125-149.83 118.34-181.36-6.5391 20.523-9.8477 41.598-9.8477 62.793 0 114.98 93.543 208.53 208.53 208.53 21.195 0 42.27-3.3086 62.793-9.8477-31.527 71.219-103.06 118.35-181.36 118.35z"></path>

      </g>
     <g id="IconSvg_iconCarrier">
      <path xmlns="http://www.w3.org/2000/svg" d="m596.11 460.74c-22.723 8.5664-46.238 12.906-69.91 12.906-109.43 0-198.45-89.023-198.45-198.45 0-23.668 4.3438-47.188 12.906-69.91 0.69922-1.8477 0.25-3.9414-1.1523-5.3398-1.3906-1.4023-3.4922-1.8477-5.3398-1.1523-80.789 30.465-135.07 108.82-135.07 194.96 0 114.98 93.543 208.53 208.53 208.53 86.152 0 164.5-54.277 194.96-135.07 0.69922-1.8477 0.25-3.9414-1.1523-5.3398-1.3945-1.3906-3.4844-1.8359-5.3281-1.1406zm-188.48 131.48c-109.43 0-198.46-89.027-198.46-198.46 0-78.297 47.125-149.83 118.34-181.36-6.5391 20.523-9.8477 41.598-9.8477 62.793 0 114.98 93.543 208.53 208.53 208.53 21.195 0 42.27-3.3086 62.793-9.8477-31.527 71.219-103.06 118.35-181.36 118.35z"></path>

      </g>
      </svg>