<svg id="svg" fill="#000000" stroke="#000000" width="200" height="200" version="1.1" viewBox="144 144 512 512" xmlns="http://www.w3.org/2000/svg" stroke-width="0">
    <g id="IconSvg_bgCarrier" stroke-width="0"></g>
    <g id="IconSvg_tracerCarrier" stroke-linecap="round" stroke-linejoin="round" stroke="#CCCCCC" stroke-width="0">
      <g xmlns="http://www.w3.org/2000/svg">
  <path d="m400 252.18c-81.516 0-147.82 66.301-147.82 147.82-0.003906 81.52 66.297 147.82 147.82 147.82 81.516 0 147.82-66.301 147.82-147.82 0-81.52-66.301-147.82-147.82-147.82zm0 280.52c-73.152 0-132.7-59.551-132.7-132.7 0-73.156 59.547-132.7 132.7-132.7 73.152 0 132.7 59.547 132.7 132.7 0 73.152-59.551 132.7-132.7 132.7z"></path>
  <path d="m400 218.27c4.1797 0 7.5586-3.375 7.5586-7.5586l-0.003906-50.027c0-4.1797-3.375-7.5547-7.5547-7.5547s-7.5586 3.375-7.5586 7.5586v50.027c0 4.1797 3.375 7.5547 7.5586 7.5547z"></path>
  <path d="m400 581.72c-4.1797 0-7.5586 3.375-7.5586 7.5586v50.027c0 4.1797 3.375 7.5586 7.5586 7.5586 4.1797 0 7.5586-3.375 7.5586-7.5586v-50.027c-0.003906-4.1836-3.3789-7.5586-7.5586-7.5586z"></path>
  <path d="m639.31 392.44h-50.027c-4.1797 0-7.5586 3.375-7.5586 7.5586 0 4.1797 3.375 7.5586 7.5586 7.5586h50.027c4.1797 0 7.5586-3.375 7.5586-7.5586-0.003907-4.1836-3.3789-7.5586-7.5586-7.5586z"></path>
  <path d="m218.27 400c0-4.1797-3.375-7.5586-7.5586-7.5586h-50.027c-4.1797 0-7.5547 3.375-7.5547 7.5586 0 4.1797 3.375 7.5586 7.5586 7.5586h50.027c4.1797-0.003906 7.5547-3.3789 7.5547-7.5586z"></path>
  <path d="m539.2 528.52c-2.9727-2.9727-7.7578-2.9727-10.68 0-2.9219 2.9727-2.9727 7.7578 0 10.68l35.367 35.367c1.4609 1.4609 3.4258 2.2148 5.3398 2.2148 1.9141 0 3.8789-0.75391 5.3398-2.2148 2.9727-2.9727 2.9727-7.7578 0-10.68z"></path>
  <path d="m260.8 271.48c1.4609 1.4609 3.4258 2.2148 5.3398 2.2148 1.9141 0 3.8789-0.75391 5.3398-2.2148 2.9727-2.9727 2.9727-7.7578 0-10.68l-35.367-35.367c-2.9727-2.9727-7.7578-2.9727-10.68 0-2.9727 2.9727-2.9727 7.7578 0 10.68z"></path>
  <path d="m533.86 273.7c1.9141 0 3.8789-0.75391 5.3398-2.2148l35.367-35.367c2.9727-2.9727 2.9727-7.7578 0-10.68-2.9727-2.9727-7.7578-2.9727-10.68 0l-35.367 35.367c-2.9727 2.9727-2.9727 7.7578 0 10.68 1.4609 1.457 3.4258 2.2148 5.3398 2.2148z"></path>
  <path d="m260.8 528.52-35.367 35.367c-2.9727 2.9727-2.9727 7.7578 0 10.68 1.4609 1.4609 3.4258 2.2148 5.3398 2.2148 1.9141 0 3.8789-0.75391 5.3398-2.2148l35.367-35.367c2.9727-2.9727 2.9727-7.7578 0-10.68-2.9727-2.9219-7.707-2.9727-10.68 0z"></path>
  <path d="m468.06 231.47c0.90625 0.35156 1.9141 0.55469 2.8203 0.55469 2.9727 0 5.8438-1.7617 7.0039-4.7344l18.742-46.352c1.5625-3.8789-0.30078-8.2617-4.1797-9.8242-3.8789-1.5625-8.2617 0.30078-9.8242 4.1797l-18.742 46.352c-1.5625 3.8789 0.30078 8.2656 4.1797 9.8242z"></path>
  <path d="m331.93 568.52c-3.8789-1.5625-8.2617 0.30078-9.8242 4.1797l-18.742 46.352c-1.5625 3.8789 0.30078 8.2617 4.1797 9.8242 0.90625 0.35156 1.8633 0.55469 2.8203 0.55469 2.9727 0 5.8438-1.7617 7.0039-4.7344l18.742-46.352c1.5625-3.8789-0.30078-8.2617-4.1797-9.8242z"></path>
  <path d="m624.7 482.62-46.352-18.742c-3.8789-1.5625-8.2617 0.30078-9.8242 4.1797s0.30078 8.2617 4.1797 9.8242l46.352 18.742c0.90625 0.35156 1.9141 0.55469 2.8203 0.55469 2.9727 0 5.8438-1.7617 7.0039-4.7344 1.5625-3.8828-0.30078-8.2656-4.1797-9.8242z"></path>
  <path d="m175.3 317.38 46.352 18.742c0.90625 0.35156 1.8633 0.55469 2.8203 0.55469 2.9727 0 5.8438-1.7617 7.0039-4.7344 1.5625-3.8789-0.30078-8.2617-4.1797-9.8242l-46.352-18.742c-3.8789-1.5625-8.2617 0.30078-9.8242 4.1797-1.5664 3.8789 0.30078 8.2617 4.1797 9.8242z"></path>
  <path d="m480.91 571.24c-1.6133-3.8281-6.0469-5.6445-9.9258-3.9805-3.8281 1.6133-5.6445 6.0469-3.9805 9.9258l19.547 46.047c1.2109 2.8711 4.0312 4.5859 6.9531 4.5859 1.0078 0 1.9648-0.20312 2.9219-0.60547 3.8281-1.6133 5.6445-6.0469 3.9805-9.9258z"></path>
  <path d="m319.09 228.75c1.2109 2.8711 4.0312 4.5859 6.9531 4.5859 1.0078 0 1.9648-0.20312 2.9727-0.60547 3.8281-1.6133 5.6445-6.0469 3.9805-9.9258l-19.547-46.047c-1.6133-3.8281-6.0977-5.6445-9.9258-3.9805-3.8281 1.6133-5.6445 6.0469-3.9805 9.9258z"></path>
  <path d="m567.26 329.01c1.2109 2.8711 4.0312 4.5859 6.9531 4.5859 1.0078 0 1.9648-0.20312 2.9219-0.60547l46.047-19.547c3.8281-1.6133 5.6445-6.0469 3.9805-9.9258-1.6133-3.8281-6.0469-5.6445-9.9258-3.9805l-46.047 19.547c-3.7773 1.6133-5.5391 6.0469-3.9297 9.9258z"></path>
  <path d="m232.73 470.98c-1.6133-3.8281-6.0977-5.6445-9.9258-3.9805l-46.047 19.547c-3.8281 1.6133-5.6445 6.0469-3.9805 9.9258 1.2109 2.8711 4.0312 4.5859 6.9531 4.5859 1.0078 0 1.9648-0.20312 2.9727-0.60547l46.047-19.547c3.8281-1.6133 5.5938-6.0469 3.9805-9.9258z"></path>
 </g>

      </g>
     <g id="IconSvg_iconCarrier">
      <g xmlns="http://www.w3.org/2000/svg">
  <path d="m400 252.18c-81.516 0-147.82 66.301-147.82 147.82-0.003906 81.52 66.297 147.82 147.82 147.82 81.516 0 147.82-66.301 147.82-147.82 0-81.52-66.301-147.82-147.82-147.82zm0 280.52c-73.152 0-132.7-59.551-132.7-132.7 0-73.156 59.547-132.7 132.7-132.7 73.152 0 132.7 59.547 132.7 132.7 0 73.152-59.551 132.7-132.7 132.7z"></path>
  <path d="m400 218.27c4.1797 0 7.5586-3.375 7.5586-7.5586l-0.003906-50.027c0-4.1797-3.375-7.5547-7.5547-7.5547s-7.5586 3.375-7.5586 7.5586v50.027c0 4.1797 3.375 7.5547 7.5586 7.5547z"></path>
  <path d="m400 581.72c-4.1797 0-7.5586 3.375-7.5586 7.5586v50.027c0 4.1797 3.375 7.5586 7.5586 7.5586 4.1797 0 7.5586-3.375 7.5586-7.5586v-50.027c-0.003906-4.1836-3.3789-7.5586-7.5586-7.5586z"></path>
  <path d="m639.31 392.44h-50.027c-4.1797 0-7.5586 3.375-7.5586 7.5586 0 4.1797 3.375 7.5586 7.5586 7.5586h50.027c4.1797 0 7.5586-3.375 7.5586-7.5586-0.003907-4.1836-3.3789-7.5586-7.5586-7.5586z"></path>
  <path d="m218.27 400c0-4.1797-3.375-7.5586-7.5586-7.5586h-50.027c-4.1797 0-7.5547 3.375-7.5547 7.5586 0 4.1797 3.375 7.5586 7.5586 7.5586h50.027c4.1797-0.003906 7.5547-3.3789 7.5547-7.5586z"></path>
  <path d="m539.2 528.52c-2.9727-2.9727-7.7578-2.9727-10.68 0-2.9219 2.9727-2.9727 7.7578 0 10.68l35.367 35.367c1.4609 1.4609 3.4258 2.2148 5.3398 2.2148 1.9141 0 3.8789-0.75391 5.3398-2.2148 2.9727-2.9727 2.9727-7.7578 0-10.68z"></path>
  <path d="m260.8 271.48c1.4609 1.4609 3.4258 2.2148 5.3398 2.2148 1.9141 0 3.8789-0.75391 5.3398-2.2148 2.9727-2.9727 2.9727-7.7578 0-10.68l-35.367-35.367c-2.9727-2.9727-7.7578-2.9727-10.68 0-2.9727 2.9727-2.9727 7.7578 0 10.68z"></path>
  <path d="m533.86 273.7c1.9141 0 3.8789-0.75391 5.3398-2.2148l35.367-35.367c2.9727-2.9727 2.9727-7.7578 0-10.68-2.9727-2.9727-7.7578-2.9727-10.68 0l-35.367 35.367c-2.9727 2.9727-2.9727 7.7578 0 10.68 1.4609 1.457 3.4258 2.2148 5.3398 2.2148z"></path>
  <path d="m260.8 528.52-35.367 35.367c-2.9727 2.9727-2.9727 7.7578 0 10.68 1.4609 1.4609 3.4258 2.2148 5.3398 2.2148 1.9141 0 3.8789-0.75391 5.3398-2.2148l35.367-35.367c2.9727-2.9727 2.9727-7.7578 0-10.68-2.9727-2.9219-7.707-2.9727-10.68 0z"></path>
  <path d="m468.06 231.47c0.90625 0.35156 1.9141 0.55469 2.8203 0.55469 2.9727 0 5.8438-1.7617 7.0039-4.7344l18.742-46.352c1.5625-3.8789-0.30078-8.2617-4.1797-9.8242-3.8789-1.5625-8.2617 0.30078-9.8242 4.1797l-18.742 46.352c-1.5625 3.8789 0.30078 8.2656 4.1797 9.8242z"></path>
  <path d="m331.93 568.52c-3.8789-1.5625-8.2617 0.30078-9.8242 4.1797l-18.742 46.352c-1.5625 3.8789 0.30078 8.2617 4.1797 9.8242 0.90625 0.35156 1.8633 0.55469 2.8203 0.55469 2.9727 0 5.8438-1.7617 7.0039-4.7344l18.742-46.352c1.5625-3.8789-0.30078-8.2617-4.1797-9.8242z"></path>
  <path d="m624.7 482.62-46.352-18.742c-3.8789-1.5625-8.2617 0.30078-9.8242 4.1797s0.30078 8.2617 4.1797 9.8242l46.352 18.742c0.90625 0.35156 1.9141 0.55469 2.8203 0.55469 2.9727 0 5.8438-1.7617 7.0039-4.7344 1.5625-3.8828-0.30078-8.2656-4.1797-9.8242z"></path>
  <path d="m175.3 317.38 46.352 18.742c0.90625 0.35156 1.8633 0.55469 2.8203 0.55469 2.9727 0 5.8438-1.7617 7.0039-4.7344 1.5625-3.8789-0.30078-8.2617-4.1797-9.8242l-46.352-18.742c-3.8789-1.5625-8.2617 0.30078-9.8242 4.1797-1.5664 3.8789 0.30078 8.2617 4.1797 9.8242z"></path>
  <path d="m480.91 571.24c-1.6133-3.8281-6.0469-5.6445-9.9258-3.9805-3.8281 1.6133-5.6445 6.0469-3.9805 9.9258l19.547 46.047c1.2109 2.8711 4.0312 4.5859 6.9531 4.5859 1.0078 0 1.9648-0.20312 2.9219-0.60547 3.8281-1.6133 5.6445-6.0469 3.9805-9.9258z"></path>
  <path d="m319.09 228.75c1.2109 2.8711 4.0312 4.5859 6.9531 4.5859 1.0078 0 1.9648-0.20312 2.9727-0.60547 3.8281-1.6133 5.6445-6.0469 3.9805-9.9258l-19.547-46.047c-1.6133-3.8281-6.0977-5.6445-9.9258-3.9805-3.8281 1.6133-5.6445 6.0469-3.9805 9.9258z"></path>
  <path d="m567.26 329.01c1.2109 2.8711 4.0312 4.5859 6.9531 4.5859 1.0078 0 1.9648-0.20312 2.9219-0.60547l46.047-19.547c3.8281-1.6133 5.6445-6.0469 3.9805-9.9258-1.6133-3.8281-6.0469-5.6445-9.9258-3.9805l-46.047 19.547c-3.7773 1.6133-5.5391 6.0469-3.9297 9.9258z"></path>
  <path d="m232.73 470.98c-1.6133-3.8281-6.0977-5.6445-9.9258-3.9805l-46.047 19.547c-3.8281 1.6133-5.6445 6.0469-3.9805 9.9258 1.2109 2.8711 4.0312 4.5859 6.9531 4.5859 1.0078 0 1.9648-0.20312 2.9727-0.60547l46.047-19.547c3.8281-1.6133 5.5938-6.0469 3.9805-9.9258z"></path>
 </g>

      </g>
      </svg>